# xmcd
#
# Track frame offsets: 
#        150
#        16206
#        34963
#        52706
#        63902
#        88643
#        105870
#        125298
#        139476
#        149030
#        164849
#        186911
#        211260
#        224947
#        240324
#        262049
#        283141
#        300916
#
# Disc length: 4363 seconds
#
# Revision: 0
# Processed by: cddbd v1.5.2PL0 Copyright (c) Steve Scherf et al.
# Submitted via: ExactAudioCopy v0.95b4
#
DISCID=0f110912
DTITLE=Bruce Springsteen - A Tear Must Fall [CD1]
DYEAR=2005
DGENRE=Acid
TTITLE0=The Ties That Bind
TTITLE1=Sherry Darling
TTITLE2=Restless Nights
TTITLE3=Cindy
TTITLE4=Independence Day
TTITLE5=Hungry Heart
TTITLE6=Out In The Street
TTITLE7=Crush On You
TTITLE8=You Can Look (But You Better Not Touch)
TTITLE9=I Wanna Marry You
TTITLE10=The River
TTITLE11=Point Blank
TTITLE12=Cadillac Ranch
TTITLE13=Shes A Rocker
TTITLE14=Fade Away
TTITLE15=Stolen Car
TTITLE16=Ramrod
TTITLE17=The Price You Pay
EXTD=
EXTT0=
EXTT1=
EXTT2=
EXTT3=
EXTT4=
EXTT5=
EXTT6=
EXTT7=
EXTT8=
EXTT9=
EXTT10=
EXTT11=
EXTT12=
EXTT13=
EXTT14=
EXTT15=
EXTT16=
EXTT17=
PLAYORDER=
